<?xml version="1.0" standalone="no"?>
<!DOCTYPE svg PUBLIC "-//W3C//DTD SVG 20010904//EN"
 "http://www.w3.org/TR/2001/REC-SVG-20010904/DTD/svg10.dtd">
<svg version="1.0" xmlns="http://www.w3.org/2000/svg"
 width="495.000000pt" height="504.000000pt" viewBox="0 0 495.000000 504.000000"
 preserveAspectRatio="xMidYMid meet">

<g transform="translate(0.000000,504.000000) scale(0.100000,-0.100000)"
fill="#000000" stroke="none">
<path d="M2156 4700 c-117 -21 -179 -38 -235 -63 -42 -19 -87 -38 -101 -42
-14 -4 -36 -17 -50 -30 -14 -12 -36 -28 -50 -35 -25 -13 -129 -81 -186 -123
-62 -46 -192 -187 -235 -258 -24 -39 -56 -86 -71 -104 -16 -18 -28 -37 -28
-43 0 -6 -22 -54 -50 -109 -27 -54 -50 -106 -50 -117 0 -10 -9 -33 -19 -50
-11 -17 -25 -53 -32 -81 -6 -27 -15 -54 -19 -60 -12 -16 -20 -119 -21 -260 0
-71 -4 -146 -9 -165 -18 -72 -50 -324 -50 -396 0 -143 49 -305 103 -345 12 -9
32 -19 45 -23 21 -7 22 -5 22 46 0 48 13 90 23 78 2 -3 16 -25 30 -50 15 -25
43 -65 62 -88 40 -45 161 -122 194 -122 19 0 48 35 43 52 -2 8 27 -2 74 -26
17 -9 44 -17 60 -20 16 -2 41 -7 56 -11 20 -5 37 -1 61 14 43 27 55 26 119 -3
29 -13 73 -29 97 -36 24 -6 60 -20 80 -31 20 -10 42 -19 50 -19 25 0 -19 -40
-74 -67 -27 -14 -66 -41 -85 -62 -20 -20 -57 -53 -83 -74 -28 -23 -54 -55 -63
-77 -9 -22 -24 -42 -33 -45 -10 -3 -25 -20 -34 -38 -33 -64 -76 -137 -98 -168
-27 -38 -36 -113 -19 -163 9 -30 8 -47 -9 -108 -11 -40 -33 -98 -49 -128 -16
-30 -34 -82 -41 -115 -7 -33 -21 -76 -32 -95 -10 -19 -31 -65 -47 -101 -17
-37 -38 -75 -49 -86 -16 -16 -41 -50 -105 -145 -10 -15 -18 -34 -18 -42 0 -8
-5 -18 -10 -21 -22 -13 -9 -49 31 -83 89 -77 156 -90 246 -48 58 28 63 24 63
-44 0 -35 4 -41 48 -67 40 -25 69 -40 92 -48 3 -1 12 -4 20 -8 28 -11 105 -31
116 -29 5 1 39 -10 75 -24 62 -26 72 -26 379 -35 324 -8 340 -7 525 32 50 10
125 26 167 34 77 14 146 42 181 73 21 18 22 48 3 93 -7 19 -11 40 -8 48 3 9 0
11 -8 6 -10 -6 -12 -1 -8 19 3 14 2 26 -1 26 -7 0 -30 63 -35 95 -1 11 -8 38
-15 60 -12 39 -20 60 -47 120 -8 17 -21 82 -30 145 -8 63 -22 125 -31 138 -8
13 -12 30 -9 38 3 8 1 12 -4 9 -19 -12 1 89 22 107 18 16 22 16 71 -3 54 -22
77 -36 90 -56 4 -7 15 -13 23 -13 8 0 32 -12 54 -26 140 -93 310 19 439 289
41 85 91 133 264 248 43 29 84 64 92 78 18 35 14 196 -5 236 -8 17 -30 36 -47
44 -29 13 -33 20 -33 51 0 47 -50 127 -85 136 -14 3 -34 4 -45 1 -11 -3 -20
-2 -20 1 0 17 -63 42 -88 36 -35 -9 -82 -42 -82 -58 0 -28 -39 -48 -102 -52
-35 -3 -68 -7 -75 -9 -27 -9 -43 -68 -53 -186 -12 -151 -24 -194 -60 -230 -25
-26 -31 -28 -59 -18 -18 6 -39 23 -49 36 -9 14 -31 39 -48 57 -17 17 -34 39
-37 49 -4 9 -18 22 -31 27 -14 5 -32 21 -42 35 -9 14 -22 25 -29 25 -7 0 -18
7 -26 16 -7 8 -38 31 -68 51 -31 20 -68 44 -83 54 -15 11 -38 19 -51 19 -13 0
-31 6 -40 13 -16 11 -15 14 15 31 23 14 55 20 112 22 45 2 102 9 129 17 26 9
49 11 53 6 3 -5 16 -9 30 -9 13 0 24 -4 24 -10 0 -20 49 -9 112 23 55 29 67
32 100 23 45 -11 98 7 189 66 93 59 157 117 195 173 l34 50 0 -46 c0 -47 19
-77 40 -64 5 3 10 1 10 -4 0 -19 36 -12 57 12 106 115 133 392 67 697 -9 41
-20 82 -24 91 -5 9 -6 26 -3 37 2 11 0 23 -6 26 -6 4 -8 18 -5 32 4 15 2 24
-6 24 -6 0 -9 4 -5 9 8 13 -19 170 -45 266 -13 44 -22 87 -23 95 0 8 -4 20 -9
26 -4 6 -5 20 -1 29 5 14 3 16 -7 10 -10 -6 -12 -2 -8 19 3 15 3 24 0 21 -5
-5 -28 50 -37 88 -9 38 -105 221 -135 257 -168 201 -182 216 -305 301 -128 88
-262 149 -332 149 -8 0 -48 13 -88 29 -40 16 -132 41 -205 55 -180 35 -319 34
-534 -4z m704 -921 c0 -5 -17 -9 -37 -9 -42 0 -123 -33 -123 -49 0 -7 32 -8
93 -4 l92 6 47 -94 c57 -113 154 -245 239 -323 l62 -58 -6 -176 c-16 -470 -88
-617 -368 -757 -83 -42 -140 -61 -261 -85 -46 -9 -58 -15 -58 -30 0 -11 13
-26 30 -35 17 -9 30 -19 30 -23 0 -16 -67 -72 -110 -91 -87 -40 -235 -19 -284
40 -36 43 -34 59 10 59 42 0 74 15 74 35 0 8 -10 16 -22 19 -336 59 -519 131
-650 254 -96 91 -116 137 -128 293 -5 68 -18 186 -29 262 -25 168 -25 160 -1
152 13 -4 21 -1 24 7 41 156 132 363 205 473 32 48 66 55 144 30 51 -16 53
-19 86 -91 27 -58 50 -89 99 -135 44 -42 71 -59 85 -57 16 2 21 9 19 23 -2 11
-6 56 -9 100 l-5 80 32 -50 c72 -111 151 -181 224 -199 37 -9 72 14 81 54 5
22 12 30 29 30 12 0 31 7 43 15 52 36 191 313 267 530 5 14 16 -8 41 -84 19
-56 35 -107 35 -112z m-1001 -41 c11 -31 1 -36 -41 -19 -13 5 -35 12 -50 15
-32 7 -32 7 27 114 l40 74 7 -78 c4 -43 12 -91 17 -106z m-420 -985 c1 -83 -5
-97 -29 -68 -14 17 -16 192 -3 275 7 44 7 44 19 -40 7 -47 13 -122 13 -167z
m2309 -457 c2 -10 -12 -49 -32 -87 -20 -38 -36 -74 -36 -79 0 -23 30 -7 60 30
37 47 76 76 115 86 l28 7 -5 -52 c-4 -41 -15 -66 -47 -111 -63 -91 -59 -94 54
-46 33 14 70 26 83 26 57 0 -7 -96 -80 -119 -74 -24 -76 -73 -2 -52 98 27 132
0 71 -56 -21 -18 -47 -33 -61 -33 -24 0 -56 -23 -56 -40 0 -19 -69 -72 -114
-88 -39 -14 -52 -24 -64 -52 -108 -258 -243 -420 -349 -420 -43 0 -121 41
-205 110 -77 61 -78 62 -78 109 0 57 37 121 96 168 45 36 111 69 119 61 3 -3
-12 -42 -35 -86 -39 -79 -49 -112 -31 -112 9 0 125 194 199 331 40 75 40 75
47 220 4 79 12 150 18 157 14 18 65 15 75 -5 5 -10 13 -36 17 -58 3 -22 18
-62 31 -88 16 -33 24 -66 24 -100 0 -48 1 -50 17 -35 27 27 22 96 -11 161
l-28 57 22 53 c29 66 66 118 104 145 34 25 49 24 54 -2z m-957 -182 c114 -36
204 -101 362 -262 76 -77 134 -142 130 -144 -4 -2 -24 -5 -43 -7 -46 -4 -106
-40 -168 -101 -62 -61 -86 -119 -80 -195 3 -30 3 -55 0 -55 -17 0 -67 50 -94
95 -38 64 -60 73 -48 21 4 -19 17 -50 27 -68 11 -18 26 -55 32 -83 21 -83 61
-287 61 -305 0 -20 -87 -61 -165 -79 -145 -33 -461 -40 -680 -17 -144 16 -301
48 -347 72 -34 18 -35 10 7 199 13 61 38 193 55 295 18 102 40 219 51 262 21
85 24 122 9 113 -20 -13 -41 -81 -75 -249 -19 -94 -37 -181 -40 -193 -5 -21
-5 -21 -59 8 -55 30 -118 91 -137 133 -9 18 -4 33 27 87 76 131 181 276 249
344 57 58 86 78 159 110 l89 40 21 -30 c59 -83 133 -119 246 -119 49 0 79 6
122 26 73 34 137 85 145 115 6 28 17 27 144 -13z m-1121 -704 c16 -11 45 -27
64 -35 20 -9 36 -21 36 -28 0 -6 -14 -77 -31 -157 -17 -80 -33 -163 -34 -185
-2 -22 -15 -65 -29 -95 -14 -30 -39 -93 -55 -140 -28 -77 -37 -92 -105 -158
-65 -63 -77 -71 -97 -64 -17 7 -26 21 -33 51 -8 39 -7 44 22 74 33 34 39 47
23 47 -20 0 -72 -54 -98 -101 -15 -27 -34 -51 -42 -54 -19 -7 -51 23 -51 49 0
38 47 120 109 194 51 59 69 90 98 170 29 79 99 258 166 425 14 32 20 33 57 7z
m31 -607 c-12 -20 -14 -14 -5 12 4 9 9 14 11 11 3 -2 0 -13 -6 -23z m-341
-264 c0 -5 -7 -9 -15 -9 -15 0 -20 12 -9 23 8 8 24 -1 24 -14z m245 -97 c-3
-3 -11 0 -18 7 -9 10 -8 11 6 5 10 -3 15 -9 12 -12z"/>
<path d="M1820 3360 c-59 -8 -98 -30 -143 -79 -64 -71 -98 -160 -79 -210 8
-21 10 -18 30 36 48 130 139 203 254 203 44 0 60 4 65 15 3 9 3 18 0 22 -12
11 -83 18 -127 13z"/>
<path d="M2759 3331 c-29 -24 -21 -27 68 -34 111 -9 222 -93 279 -212 l24 -50
0 36 c0 80 -84 197 -178 247 -73 39 -155 44 -193 13z"/>
<path d="M1842 3220 c-14 -6 -34 -32 -50 -67 -23 -49 -27 -72 -27 -143 0 -72
4 -94 27 -143 21 -45 35 -61 63 -72 30 -13 39 -13 69 -1 68 28 113 137 103
246 -12 136 -94 216 -185 180z m118 -110 c11 -21 -2 -60 -21 -60 -14 0 -33 46
-26 64 9 22 34 20 47 -4z"/>
<path d="M2809 3205 c-52 -28 -96 -165 -85 -267 9 -92 41 -139 104 -153 86
-18 152 87 153 243 1 91 -26 152 -75 176 -41 19 -63 20 -97 1z m118 -129 c-8
-21 -46 -20 -54 1 -4 10 2 23 18 35 23 20 23 20 32 -1 5 -11 7 -27 4 -35z"/>
<path d="M2290 2790 c0 -5 4 -10 9 -10 6 0 13 5 16 10 3 6 -1 10 -9 10 -9 0
-16 -4 -16 -10z"/>
<path d="M2418 2645 c-2 -2 -43 -6 -93 -10 -49 -4 -107 -11 -127 -16 -94 -24
-87 -122 15 -216 96 -89 207 -83 307 17 65 65 88 184 41 209 -17 9 -136 22
-143 16z m74 -44 c31 -1 39 -5 44 -25 12 -50 -40 -135 -113 -183 -77 -51 -222
31 -248 140 -7 24 -3 29 30 43 36 15 172 32 225 28 14 -1 42 -2 62 -3z"/>
<path d="M2100 1240 c0 -5 5 -10 11 -10 5 0 7 5 4 10 -3 6 -8 10 -11 10 -2 0
-4 -4 -4 -10z"/>
<path d="M2170 1176 c0 -9 5 -16 10 -16 6 0 10 4 10 9 0 6 -4 13 -10 16 -5 3
-10 -1 -10 -9z"/>
</g>
</svg>
